<svg width="204" height="204" fill="none" xmlns="http://www.w3.org/2000/svg"><circle cx="102" cy="102" r="76.394" stroke="#fff" stroke-width=".5" stroke-dasharray="5.5 5.5"/><circle cx="102" cy="102" r="101.75" stroke="#fff" stroke-width=".5" stroke-dasharray="5.5 5.5"/><path d="M121.443 188.641c-.397-1.444-.344-2.653.158-3.626.503-.973 1.423-1.643 2.76-2.011 1.337-.367 2.47-.262 3.4.317.93.579 1.594 1.595 1.994 3.047.399 1.452.346 2.659-.16 3.62-.509.966-1.434 1.634-2.775 2.003-1.341.368-2.472.264-3.392-.313-.925-.576-1.586-1.588-1.985-3.037zm6.369-1.751c-.268-.975-.655-1.658-1.161-2.05-.506-.392-1.127-.486-1.863-.284-1.476.406-1.945 1.59-1.405 3.552.541 1.966 1.545 2.747 3.014 2.343.736-.203 1.222-.604 1.46-1.205.238-.596.223-1.381-.045-2.356zm-13.334 7.516l-.261-1.563 3.749-.626-1.23-7.363 1.893-.317 1.491 8.927-5.642.942zm-4.917-3.791l-.63.046c-.588.044-1.02.191-1.296.443-.275.256-.396.606-.363 1.051.033.449.181.771.443.967.259.196.649.275 1.172.237l.871-.064-.197-2.68zm-4.217 1.75c-.071-.972.179-1.737.75-2.296.568-.559 1.411-.879 2.531-.962l.821-.06-.236-3.21 1.914-.141.663 9.026-2.884.212c-1.094.08-1.943-.095-2.546-.527-.606-.427-.944-1.108-1.013-2.042zm-7.666-6.307l.606 2.169 3.299.076.705-2.138 2.068.048-3.404 9.011-2.346-.054-2.995-9.16 2.067.048zm1.027 3.789c.561 1.965.878 3.077.95 3.334.069.258.118.461.147.611.149-.525.569-1.822 1.261-3.891l-2.358-.054zm-11.48-4.934l1.896.257-.525 3.871 3.551.481.526-3.87 1.901.258-1.216 8.968-1.902-.258.477-3.515-3.552-.482-.477 3.515-1.895-.257 1.216-8.968zm-4.598 8.369l-1.67-.439 1.11-4.227.322-1.125.398-1.272-.036-.009-5.788 5.583-2.22-.584 2.3-8.753 1.652.434-1.104 4.203a43.42 43.42 0 01-.766 2.475l.048.012 5.822-5.638 2.233.587-2.3 8.753zm-14.643-14.249l1.781.714-1.302 3.247a11.8 11.8 0 011.64.184c.42.084.808.197 1.164.34.8.321 1.343.761 1.626 1.319.277.561.276 1.189-.003 1.886l-1.392 3.471-1.776-.712 1.19-2.965c.162-.406.191-.75.087-1.032-.106-.279-.384-.508-.832-.687a5.18 5.18 0 00-.973-.284 10.5 10.5 0 00-1.289-.13l-1.51 3.763-1.78-.714 3.369-8.4zm-7.218-3.631l4.618 2.416-4.194 8.02-4.619-2.416.729-1.394 2.918 1.527.921-1.761-2.715-1.42.729-1.393 2.715 1.42 1.081-2.068-2.918-1.527.735-1.404zm-8.222-5.246l1.59 1.063-2.168 3.248 2.98 1.99 2.17-3.248 1.596 1.065-5.026 7.527-1.596-1.065 1.97-2.95-2.981-1.99-1.97 2.95-1.59-1.062 5.025-7.528zm-7.536-6.162l1.461 1.235-2.522 2.983 2.738 2.314 2.521-2.983 1.466 1.239-5.843 6.912-1.465-1.239 2.29-2.709-2.738-2.314-2.29 2.709-1.46-1.235 5.842-6.912zm-5.539-5.658l-1.11 1.959 2.273 2.392 2.014-1.008 1.424 1.498-8.787 3.945-1.617-1.7 4.379-8.585 1.424 1.499zm-1.96 3.4l-1.693 3.027c-.135.23-.244.408-.33.534.478-.265 1.693-.882 3.647-1.851l-1.625-1.71z" fill="#fff"/><path d="M32.793 155.725l4.042-.449 1.303 1.685-4.724.397c.15.531.138 1.035-.035 1.513-.176.481-.496.9-.96 1.259-.656.507-1.34.665-2.051.474-.717-.191-1.412-.723-2.086-1.595l-1.802-2.331 7.16-5.536 1.174 1.519-2.748 2.124.727.94zm-3.896 1.509l.58.75c.302.391.607.641.914.748.307.107.624.034.95-.218.317-.245.486-.543.508-.893.02-.35-.135-.741-.468-1.172l-.55-.71-1.934 1.495zm-1.233-15.729l-1.552 1.632 1.626 2.871 2.198-.49 1.019 1.799-9.482 1.698-1.156-2.042 6.328-7.268 1.019 1.8zm-2.727 2.824c-1.4 1.489-2.191 2.331-2.375 2.525a9.765 9.765 0 01-.449.439c.527-.141 1.856-.445 3.986-.912l-1.162-2.052zm-1.684-12.367l.871 1.998-2.892 4.841 4.204-1.834.767 1.759-8.295 3.618-.767-1.758 4.017-1.753-5.314-1.221-.817-1.872 5.302 1.287 2.924-5.065zm-3.993-7.476l-.402-1.288 3.97-1.239.552 1.767-2.517.785 1.984 6.359-8.64 2.696-.571-1.832 7.115-2.22-.992-3.179-7.115 2.22-.57-1.826 7.186-2.243zm-8.177-1.445l-.304-1.7 4.302-.769 1.156-.182 1.321-.173-.006-.037-7.5-2.903-.404-2.261 8.909-1.594.3 1.682-4.277.765c-.573.103-1.429.218-2.567.346l.008.049 7.564 2.911.407 2.273-8.909 1.593zm3.503-15.138l3.597 1.899.131 2.125-4.132-2.325c-.174.524-.467.935-.878 1.233-.416.299-.916.466-1.501.502-.828.051-1.483-.202-1.964-.759-.485-.561-.762-1.392-.83-2.492l-.182-2.941 9.033-.558.119 1.915-3.466.214.073 1.187zm-4.07-.939l.058.945c.03.494.142.872.336 1.133.194.261.497.378.909.353.4-.025.707-.176.92-.454.215-.278.306-.689.272-1.232l-.055-.896-2.44.151zm7.979-15.86l-.169 1.905-3.89-.346-.318 3.57 3.89.346-.17 1.912-9.014-.802.17-1.912 3.533.315.318-3.57-3.534-.315.17-1.905 9.014.802zm1.456-7.93l-2.242.215-.655 3.234 1.981 1.071-.41 2.027-8.273-4.936.466-2.3 9.544-1.337-.41 2.026zm-3.91.345l-3.45.35c-.265.021-.474.034-.627.037.491.238 1.694.88 3.609 1.924l.468-2.311zm3.654-14.955c1.401.508 2.329 1.297 2.784 2.366.457 1.065.413 2.35-.133 3.856l-.873 2.41-8.51-3.084.97-2.672c.502-1.389 1.26-2.334 2.272-2.837 1.012-.502 2.175-.515 3.49-.039zm-.632 1.891c-1.828-.662-3.034-.186-3.619 1.428l-.348.96 5.54 2.008.281-.774c.63-1.738.012-2.945-1.854-3.622zm5.371-11.65c1.34.67 2.204 1.517 2.592 2.54.388 1.025.272 2.157-.348 3.398-.62 1.24-1.455 2.013-2.507 2.318-1.052.304-2.252.12-3.6-.553-1.347-.674-2.21-1.52-2.586-2.538-.378-1.024-.257-2.159.365-3.403.621-1.244 1.454-2.016 2.5-2.315 1.045-.303 2.24-.119 3.584.553zm-2.952 5.909c.904.451 1.671.62 2.3.506.63-.115 1.115-.514 1.456-1.197.685-1.37.117-2.509-1.703-3.418-1.824-.912-3.076-.686-3.756.676-.342.683-.368 1.313-.08 1.891.284.576.878 1.09 1.783 1.542zm8.602-14.762c1.252.823 2.01 1.766 2.275 2.828.265 1.063.017 2.174-.745 3.333-.761 1.159-1.682 1.827-2.763 2.006-1.08.18-2.25-.145-3.509-.972s-2.015-1.769-2.27-2.825c-.255-1.061-.001-2.173.763-3.336.764-1.162 1.682-1.83 2.754-2.005 1.075-.177 2.24.146 3.495.971zm-3.627 5.52c.845.556 1.587.813 2.225.774.639-.04 1.168-.38 1.587-1.017.84-1.28.411-2.478-1.29-3.595-1.703-1.12-2.973-1.043-3.81.23-.419.637-.52 1.26-.301 1.868.214.605.744 1.185 1.59 1.74zm5.751-9l.394-.477c.387-.467.594-.877.622-1.228.028-.352-.124-.666-.458-.942-.331-.273-.661-.353-.99-.24-.327.11-.688.404-1.082.88l-.371.45 1.885 1.557zm1.202.995l2.676 2.212-1.223 1.48-6.975-5.768 1.68-2.032c.784-.948 1.538-1.506 2.26-1.674.72-.17 1.431.034 2.134.615.41.34.683.755.817 1.247.132.488.117 1.014-.044 1.578 2.436.247 4.015.4 4.736.461l-1.357 1.641-4.053-.548-.651.788zm12.33-8.113l-1.372 1.333-2.722-2.802-2.57 2.497 2.72 2.802-1.376 1.337-6.306-6.492 1.377-1.337 2.471 2.545 2.571-2.498-2.471-2.544 1.372-1.333 6.306 6.492zm6.17-4.99l-1.842-1.297-2.603 2.028.806 2.103-1.631 1.27-3.064-9.132 1.85-1.442 8.115 5.2-1.631 1.27zm-3.192-2.285a1906.434 1906.434 0 01-2.846-1.981 10.543 10.543 0 01-.5-.38c.217.5.712 1.77 1.485 3.81l1.86-1.449zm12.562-3.827l-2.077 1.279-6.943-3.765-.047.029c.7.988 1.186 1.702 1.457 2.141l2.233 3.627-1.46.899-4.746-7.706 2.061-1.27 6.902 3.711.037-.023A54.938 54.938 0 0157.31 25.1l-2.247-3.648 1.471-.905 4.746 7.706zm21.661-13.396c.397 1.444.345 2.653-.158 3.626-.503.973-1.423 1.643-2.76 2.01-1.337.369-2.47.263-3.4-.316-.93-.579-1.594-1.595-1.994-3.047-.4-1.452-.346-2.659.16-3.62.51-.966 1.434-1.633 2.775-2.002 1.341-.37 2.472-.265 3.393.312.924.576 1.586 1.588 1.984 3.037zm-6.368 1.752c.268.974.655 1.658 1.16 2.05.506.39 1.127.485 1.863.283 1.477-.406 1.945-1.59 1.405-3.552-.54-1.965-1.545-2.746-3.013-2.342-.736.202-1.223.603-1.46 1.204-.239.596-.224 1.382.044 2.357zM89.906 9.09l.261 1.564-3.749.626 1.23 7.364-1.893.316-1.49-8.927 5.641-.942zm4.917 3.792l.63-.046c.589-.043 1.02-.191 1.296-.443.275-.256.396-.606.364-1.05-.033-.45-.181-.772-.444-.968-.258-.196-.649-.275-1.172-.236l-.87.064.197 2.679zm4.217-1.75c.071.972-.179 1.737-.75 2.296-.567.56-1.41.88-2.53.962l-.821.06.235 3.21-1.914.141-.662-9.026 2.883-.212c1.095-.08 1.944.095 2.546.527.607.427.944 1.108 1.013 2.042zm7.666 6.308l-.606-2.17-3.298-.076-.706 2.138-2.067-.048 3.404-9.01 2.345.054 2.996 9.159-2.068-.048zm-1.026-3.79c-.562-1.965-.879-3.077-.951-3.334a11.132 11.132 0 01-.147-.61c-.148.524-.568 1.821-1.26 3.89l2.358.054zm11.479 4.934l-1.896-.257.525-3.87-3.551-.482-.525 3.87-1.902-.258 1.217-8.968 1.901.258-.477 3.515 3.552.482.477-3.515 1.896.257-1.217 8.968zm4.598-8.369l1.671.44-1.112 4.226-.321 1.126-.398 1.271.036.01 5.788-5.584 2.221.584-2.301 8.753-1.652-.434 1.105-4.203c.148-.563.403-1.388.765-2.474l-.048-.013-5.821 5.638-2.234-.587 2.301-8.753zM136.4 24.464l-1.781-.714 1.302-3.247a11.952 11.952 0 01-1.64-.184 6.581 6.581 0 01-1.164-.34c-.801-.321-1.342-.76-1.625-1.319-.278-.56-.277-1.19.003-1.886l1.392-3.47 1.775.711-1.189 2.965c-.163.406-.192.75-.087 1.032.106.279.383.508.831.687.314.126.639.221.974.284.34.061.769.104 1.288.13l1.51-3.763 1.781.714-3.37 8.4zm7.219 3.631L139 25.679l4.195-8.02 4.618 2.416-.728 1.394-2.919-1.527-.921 1.761 2.716 1.42-.729 1.394-2.715-1.42-1.082 2.067 2.918 1.527-.734 1.404zm8.222 5.245l-1.591-1.061 2.169-3.25-2.981-1.99-2.169 3.25-1.596-1.066 5.025-7.527 1.596 1.065-1.97 2.95 2.981 1.99 1.97-2.95 1.591 1.063-5.025 7.527zm7.535 6.163l-1.461-1.235 2.522-2.983-2.737-2.314-2.522 2.983-1.466-1.239 5.843-6.912 1.466 1.24-2.29 2.708 2.737 2.314 2.29-2.709 1.461 1.235-5.843 6.912zm5.539 5.658l1.11-1.96-2.273-2.39-2.014 1.008-1.424-1.5 8.788-3.944 1.616 1.7-4.378 8.585-1.425-1.499zm1.961-3.4a1364.42 1364.42 0 011.693-3.027c.134-.23.244-.408.329-.534-.477.265-1.693.882-3.647 1.851l1.625 1.71z" fill="#fff"/><path d="M171.591 47.772l-4.042.45-1.302-1.686 4.724-.397a2.415 2.415 0 01.035-1.513c.176-.48.496-.9.959-1.259.657-.507 1.34-.665 2.051-.474.717.192 1.413.723 2.087 1.595l1.802 2.331-7.161 5.536-1.173-1.518 2.747-2.125-.727-.94zm3.896-1.51l-.579-.748c-.303-.392-.608-.642-.915-.749-.307-.107-.624-.034-.95.218-.317.245-.486.543-.507.893-.022.35.134.741.468 1.172l.549.71 1.934-1.495zm1.233 15.731l1.552-1.633-1.626-2.871-2.198.49-1.018-1.799 9.481-1.697 1.156 2.041-6.328 7.268-1.019-1.8zm2.727-2.824c1.4-1.49 2.192-2.332 2.376-2.526.186-.191.335-.337.448-.44-.527.142-1.855.447-3.986.913l1.162 2.053zm1.684 12.366l-.871-1.997 2.893-4.842-4.205 1.834-.767-1.759 8.295-3.618.768 1.759-4.018 1.752 5.315 1.22.816 1.873-5.302-1.286-2.924 5.064zm3.994 7.475l.402 1.289-3.971 1.24-.552-1.768 2.518-.785-1.985-6.359 8.64-2.696.571 1.832-7.114 2.22.992 3.18 7.115-2.22.569 1.825-7.185 2.243zm8.176 1.446l.304 1.7-4.302.77-1.156.181-1.321.174.007.036 7.499 2.903.405 2.261-8.909 1.594-.301-1.682 4.278-.765a43.358 43.358 0 012.567-.346l-.009-.049-7.564-2.91-.407-2.274 8.909-1.593zm-3.503 15.138l-3.597-1.898-.131-2.126 4.132 2.325c.174-.524.467-.935.879-1.233.415-.299.916-.466 1.501-.502.828-.051 1.482.202 1.963.76.485.56.762 1.391.83 2.49l.182 2.942-9.033.558-.119-1.915 3.467-.214-.074-1.187zm4.071.94l-.058-.946c-.031-.494-.143-.872-.337-1.132-.194-.261-.497-.38-.909-.354-.399.025-.706.176-.921.454-.214.278-.304.689-.271 1.233l.056.895 2.44-.15zm-7.98 15.86l.169-1.906 3.891.346.318-3.57-3.891-.346.17-1.911 9.015.801-.17 1.912-3.534-.314-.317 3.57 3.533.314-.169 1.905-9.015-.801zm-1.456 7.929l2.242-.215.655-3.234-1.981-1.071.411-2.026 8.272 4.935-.466 2.299-9.543 1.338.41-2.026zm3.91-.345c2.034-.207 3.184-.323 3.45-.349.266-.022.475-.034.627-.037-.491-.239-1.694-.88-3.608-1.925l-.469 2.311zm-3.654 14.955c-1.401-.508-2.329-1.296-2.784-2.366-.457-1.065-.412-2.35.133-3.856l.874-2.409 8.508 3.084-.968 2.671c-.503 1.389-1.261 2.335-2.272 2.837-1.012.503-2.176.516-3.491.039zm.633-1.891c1.827.662 3.033.186 3.618-1.428l.348-.96-5.54-2.008-.281.774c-.63 1.738-.012 2.946 1.855 3.622zm-5.372 11.65c-1.34-.669-2.204-1.516-2.592-2.541-.388-1.024-.272-2.156.348-3.397.62-1.24 1.456-2.013 2.508-2.317 1.052-.305 2.251-.121 3.599.552 1.347.674 2.209 1.52 2.586 2.538.379 1.025.257 2.159-.364 3.403-.622 1.244-1.455 2.016-2.5 2.315-1.046.303-2.241.119-3.585-.553zm2.952-5.908c-.904-.452-1.671-.621-2.3-.506-.63.114-1.115.513-1.456 1.196-.685 1.369-.117 2.509 1.703 3.418 1.824.912 3.076.686 3.757-.676.341-.683.368-1.313.08-1.891-.285-.576-.879-1.089-1.784-1.541zm-8.602 14.761c-1.252-.823-2.01-1.765-2.275-2.828-.265-1.063-.016-2.174.745-3.333.762-1.158 1.683-1.827 2.763-2.006 1.081-.179 2.25.145 3.509.972s2.016 1.769 2.27 2.825c.255 1.062.001 2.174-.762 3.336-.764 1.162-1.682 1.831-2.755 2.005-1.075.178-2.24-.146-3.495-.971zm3.627-5.52c-.845-.555-1.587-.813-2.225-.773-.639.039-1.167.378-1.587 1.016-.84 1.28-.411 2.478 1.29 3.596 1.704 1.119 2.974 1.043 3.81-.23.419-.638.52-1.261.302-1.868-.215-.606-.745-1.186-1.59-1.741zm-5.75 9l-.395.477c-.386.467-.594.877-.622 1.228-.028.352.125.666.459.942.331.273.661.353.99.24.327-.11.687-.404 1.082-.881l.37-.448-1.884-1.558zm-1.202-.994l-2.677-2.213 1.223-1.479 6.975 5.767-1.68 2.032c-.784.948-1.537 1.506-2.26 1.674-.72.171-1.431-.034-2.134-.615a2.424 2.424 0 01-.817-1.246c-.131-.489-.117-1.015.044-1.579a389.38 389.38 0 00-4.735-.461l1.357-1.641 4.053.548.651-.787zm-12.331 8.112l1.373-1.333 2.721 2.802 2.571-2.497-2.721-2.802 1.376-1.337 6.306 6.492-1.377 1.337-2.471-2.545-2.571 2.498 2.471 2.544-1.372 1.333-6.306-6.492zm-6.169 4.99l1.841 1.297 2.603-2.028-.806-2.102 1.631-1.271 3.064 9.132-1.851 1.442-8.114-5.199 1.632-1.271zm3.191 2.285c1.679 1.167 2.627 1.828 2.846 1.982.216.156.383.282.5.379-.217-.5-.712-1.77-1.485-3.81l-1.861 1.449zm-12.561 3.827l2.076-1.279 6.943 3.766.047-.029c-.7-.989-1.186-1.703-1.457-2.142l-2.233-3.627 1.46-.899 4.746 7.707-2.061 1.269-6.902-3.711-.037.023c.67.969 1.132 1.661 1.388 2.075l2.246 3.648-1.471.906-4.745-7.707z" fill="#fff"/><circle cx="66.847" cy="19.593" r="3.458" fill="#F7941D"/><circle cx="138.305" cy="183.254" r="3.458" fill="#F7941D"/></svg>