<svg width="331" height="48" fill="none" xmlns="http://www.w3.org/2000/svg"><path d="M19.2 9.43l2.887-5.25.219.12 1.443-2.625c.12-.218.266-.415.435-.589l-.18-.174a3.003 3.003 0 011.363-.806l.066.241c.233-.063.477-.097.726-.097h2.794V0h5.588v.25h5.588V0h5.589v.25h5.588V0h5.588v.25h5.589V0h5.588v.25h5.588V0h5.588v.25h5.589V0h5.588v.25h5.588V0h5.589v.25h5.588V0h5.588v.25h5.589V0h5.588v.25h5.588V0h5.589v.25h5.588V0h5.588v.25h5.589V0h5.588v.25h5.588V0h5.589v.25h5.588V0h5.588v.25h5.589V0h5.588v.25h5.588V0h5.589v.25h5.588V0h5.588v.25h5.588V0h5.589v.25h5.588V0h5.588v.25h5.589V0h5.588v.25h5.588V0h5.589v.25h5.588V0h5.588v.25h5.589V0h5.588v.25h5.588V0h5.589v.25h5.588V0h5.588v.25h5.589V0h5.588v.25h5.588V0h5.589v.25h2.794c.509 0 .97.132 1.364.357l.124-.217a3.032 3.032 0 011.515 2.563l-.249.004c.007.453-.099.922-.344 1.368l-1.443 2.625.219.12-2.886 5.25-.219-.12-2.886 5.25.219.12-2.886 5.25-.219-.12-2.885 5.25.219.12-2.886 5.25-.219-.12-2.886 5.25.219.12-2.886 5.25-.219-.12-1.443 2.625a2.7 2.7 0 01-.435.589l.18.174a3.003 3.003 0 01-1.363.806l-.066-.241a2.749 2.749 0 01-.726.097h-2.794V48h-5.588v-.25h-5.588V48h-5.589v-.25h-5.588V48h-5.588v-.25h-5.589V48h-5.588v-.25h-5.588V48h-5.589v-.25h-5.588V48h-5.588v-.25h-5.588V48h-5.589v-.25h-5.588V48h-5.588v-.25h-5.589V48h-5.588v-.25h-5.588V48h-5.589v-.25h-5.588V48h-5.588v-.25h-5.589V48h-5.588v-.25h-5.588V48h-5.589v-.25h-5.588V48h-5.588v-.25h-5.589V48h-5.588v-.25h-5.588V48h-5.589v-.25h-5.588V48h-5.588v-.25h-5.588V48h-5.589v-.25h-5.588V48H95.28v-.25h-5.59V48h-5.588v-.25h-5.588V48h-5.589v-.25h-5.588V48H61.75v-.25h-5.59V48h-5.588v-.25h-5.588V48h-5.589v-.25h-5.588V48H28.22v-.25h-5.588V48h-5.589v-.25h-5.588V48H5.867v-.25H3.072a2.73 2.73 0 01-1.364-.357l-.124.217a3.032 3.032 0 01-1.515-2.563l.25-.004a2.727 2.727 0 01.343-1.368l1.443-2.625-.219-.12 2.886-5.25.22.12 2.885-5.25-.22-.12 2.887-5.25.219.12 2.885-5.25-.219-.12 2.886-5.25.22.12 2.885-5.25-.22-.12z" stroke="#8F8F8F" stroke-width=".5" stroke-dasharray="5.5 5.5"/></svg>