<svg width="54" height="11" fill="none" xmlns="http://www.w3.org/2000/svg"><path d="M5.538.64c1.135 0 1.946.286 2.431.858.355.433.533.975.533 1.625 0 .234-.022.481-.065.741L7.93 6.763c-.173.98-.598 1.764-1.274 2.353-.676.59-1.551.884-2.626.884H.247L1.898.64h3.64zm-.819 2.028h-.845l-.923 5.304h1.235c.407 0 .724-.108.949-.325.234-.225.394-.59.481-1.092l.377-2.132a2.93 2.93 0 00.052-.52c0-.823-.442-1.235-1.326-1.235zm8.15.897c.936 0 1.643.204 2.12.611.372.32.558.767.558 1.339 0 .19-.021.399-.065.624L15.21 7.66c-.164.919-.55 1.569-1.157 1.95-.598.381-1.4.572-2.405.572s-1.742-.19-2.21-.572c-.346-.286-.52-.715-.52-1.287 0-.2.022-.42.065-.663l.273-1.521c.304-1.716 1.508-2.574 3.614-2.574zm.351 2.834a1.7 1.7 0 00.026-.325c0-.139-.056-.29-.169-.455-.112-.165-.312-.247-.598-.247a.955.955 0 00-.702.286c-.19.182-.312.429-.364.741l-.169.975c-.017.087-.026.2-.026.338 0 .13.057.273.17.429.112.156.307.234.584.234a.97.97 0 00.715-.286c.191-.2.312-.438.364-.715l.17-.975zm6.987-2.834c.936 0 1.642.204 2.12.611.372.32.558.767.558 1.339 0 .19-.022.399-.065.624l-.273 1.521c-.165.919-.55 1.569-1.157 1.95-.598.381-1.4.572-2.405.572s-1.742-.19-2.21-.572c-.346-.286-.52-.715-.52-1.287 0-.2.022-.42.065-.663l.273-1.521c.303-1.716 1.508-2.574 3.614-2.574zm.351 2.834a1.7 1.7 0 00.026-.325c0-.139-.056-.29-.169-.455-.113-.165-.312-.247-.598-.247a.954.954 0 00-.702.286c-.19.182-.312.429-.364.741l-.169.975c-.017.087-.026.2-.026.338 0 .13.056.273.17.429.112.156.307.234.584.234a.97.97 0 00.715-.286c.19-.2.312-.438.364-.715l.17-.975zm9.405-1.326c0 .295-.052.58-.156.858-.095.277-.19.481-.286.611l-.143.182h-1.963a.967.967 0 00.325-.741.487.487 0 00-.156-.377.52.52 0 00-.403-.156c-.295 0-.55.147-.767.442L25.686 10h-2.21l1.105-6.253h2.054l-.156.871c.494-.702 1.092-1.053 1.794-1.053.563 0 .984.134 1.261.403.286.269.43.637.43 1.105zm7.12 3.263c.2 0 .377-.043.533-.13l-.065 1.469a2.118 2.118 0 01-1.391.507c-1.179 0-1.768-.494-1.768-1.482 0-.173.017-.36.052-.559l.286-1.599c.026-.156.039-.312.039-.468 0-.416-.221-.624-.663-.624-.434 0-.772.147-1.014.442L32.364 10h-2.21L31.896.133h2.21l-.741 4.199c.477-.511 1.075-.767 1.794-.767.875 0 1.443.195 1.703.585.182.26.273.55.273.871 0 .32-.026.615-.078.884l-.351 1.937a.872.872 0 00-.013.143c0 .234.13.351.39.351zm7.399-.338c0 .225.112.338.338.338.234 0 .429-.043.585-.13l-.065 1.469a2.169 2.169 0 01-1.404.507c-.954 0-1.482-.347-1.586-1.04-.434.693-1.07 1.04-1.911 1.04-1.422 0-2.132-.611-2.132-1.833 0-.208.021-.438.065-.689l.273-1.521c.138-.78.455-1.4.949-1.859.502-.468 1.152-.702 1.95-.702.806 0 1.352.186 1.638.559l.065-.39h1.976l-.728 4.095a.955.955 0 00-.013.156zm-3.848-.624a1.58 1.58 0 00-.026.325c0 .139.065.277.195.416.13.13.346.195.65.195.312 0 .58-.121.806-.364l.39-2.184c-.096-.217-.321-.325-.676-.325-.668 0-1.058.32-1.17.962l-.17.975zm9.757-1.365c0-.373-.182-.559-.546-.559-.355 0-.65.134-.884.403L48.233 10h-2.21l1.105-6.253h2.054l-.143.767c.511-.633 1.157-.949 1.937-.949s1.287.19 1.52.572c.148.243.222.52.222.832 0 .312-.022.602-.065.871l-.351 2.002a.883.883 0 00-.013.143c0 .234.13.351.39.351.2 0 .377-.043.533-.13l-.065 1.469a2.118 2.118 0 01-1.391.507c-1.179 0-1.768-.494-1.768-1.482 0-.173.017-.36.052-.559l.312-1.729a2.5 2.5 0 00.039-.403z" fill="#fff"/></svg>