<svg width="150" height="33" fill="none" xmlns="http://www.w3.org/2000/svg"><path d="M5.048 1.404h47.596L47.596 29.49H0L5.048 1.404z" fill="#F7941D"/><path d="M62.706 6.993c1.754 0 3 .375 3.738 1.124.554.569.831 1.288.831 2.156 0 .3-.03.615-.092.944l-.208 1.079c-.17.853-.5 1.52-.992 2-.477.479-.9.718-1.27.718l-.023.18c.431 0 .87.232 1.316.696a2.29 2.29 0 01.669 1.64c0 .255-.03.525-.092.81l-.139.696c-.246 1.288-.838 2.3-1.777 3.033-.923.734-2.215 1.101-3.877 1.101h-7.707l2.93-16.177h6.693zm-2.077 9.572h-2.192l-.554 3.1h2.284c.708 0 1.27-.157 1.685-.472.415-.33.623-.726.623-1.19 0-.96-.615-1.438-1.846-1.438zm.623-6.067h-1.73l-.6 3.348h1.707c1.477 0 2.215-.63 2.215-1.887 0-.435-.138-.787-.415-1.056-.262-.27-.654-.405-1.177-.405zM76.308 23.17l.138-3.527h-3.854l-1.131 3.527h-4.408l5.931-16.177H80.6l.091 16.177h-4.383zm-.947-12.245l-1.823 5.707h3.023l.254-5.707h-1.454zM92.5 6.993c1.754 0 3 .375 3.738 1.124.554.569.831 1.288.831 2.156 0 .3-.031.615-.092.944l-.323 1.753c-.185.973-.508 1.76-.97 2.359-.446.599-.946 1.026-1.5 1.28l2.1 6.561h-4.661l-1.939-6.044h-1.43l-.947 6.044h-4.43l2.93-16.177H92.5zm-1.454 3.505h-1.73l-.6 3.91h1.615c.814 0 1.4-.188 1.753-.562.354-.39.531-.899.531-1.528 0-1.213-.523-1.82-1.569-1.82zm16.598-3.505c1.754 0 3 .375 3.738 1.124.554.569.831 1.288.831 2.156 0 .3-.031.615-.092.944l-.323 1.753c-.185.973-.508 1.76-.969 2.359-.447.599-.947 1.026-1.5 1.28l2.1 6.561h-4.662l-1.938-6.044h-1.431l-.946 6.044H98.02l2.931-16.177h6.692zm-1.454 3.505h-1.731l-.6 3.91h1.616c.815 0 1.4-.188 1.754-.562.353-.39.53-.899.53-1.528 0-1.213-.523-1.82-1.569-1.82zm14.06-3.505l-2.908 16.177h-4.177l2.931-16.177h4.154zm11.936 16.177h-11.584l2.93-16.177h11.585l-.646 3.505h-7.431l-.531 3.033h6.139l-.646 3.505h-6.139l-.461 2.63h7.43l-.646 3.504zm12.282-16.177c1.753 0 3 .375 3.738 1.124.554.569.831 1.288.831 2.156 0 .3-.031.615-.092.944l-.324 1.753c-.184.973-.507 1.76-.969 2.359-.446.599-.946 1.026-1.5 1.28l2.1 6.561h-4.661l-1.939-6.044h-1.431l-.946 6.044h-4.43l2.93-16.177h6.693zm-1.454 3.505h-1.731l-.6 3.91h1.615c.816 0 1.4-.188 1.754-.562.354-.39.531-.899.531-1.528 0-1.213-.523-1.82-1.569-1.82z" fill="#000"/><path d="M15.11 6.993c1.753 0 3 .375 3.738 1.124.554.569.83 1.288.83 2.156 0 .3-.03.615-.091.944l-.208 1.079c-.17.853-.5 1.52-.992 2-.477.479-.9.718-1.27.718l-.023.18c.431 0 .87.232 1.316.696a2.29 2.29 0 01.669 1.64c0 .255-.03.525-.093.81l-.138.696c-.246 1.288-.838 2.3-1.777 3.033-.923.734-2.215 1.101-3.877 1.101H5.487l2.93-16.177h6.693zm-2.077 9.572H10.84l-.553 3.1h2.283c.708 0 1.27-.157 1.685-.472.415-.33.623-.726.623-1.19 0-.96-.615-1.438-1.846-1.438zm.623-6.067h-1.731l-.6 3.348h1.708c1.477 0 2.215-.63 2.215-1.887 0-.435-.138-.787-.415-1.056-.262-.27-.654-.405-1.177-.405zM32.238 23.17H20.653l2.931-16.177H35.17l-.646 3.505h-7.431l-.531 3.033H32.7l-.647 3.505h-6.138l-.462 2.63h7.431l-.646 3.504zm13.181 0H34.896l2.93-16.177h4.155l-2.285 12.672h6.37l-.647 3.505z" fill="#fff"/></svg>