<svg width="208" height="47" fill="none" xmlns="http://www.w3.org/2000/svg"><path d="M7 2h66l-7 40H0L7 2z" fill="#F7941D"/><path d="M86.952 9.96c2.432 0 4.16.533 5.184 1.6.768.81 1.152 1.835 1.152 3.072 0 .427-.043.875-.128 1.344l-.288 1.536c-.235 1.216-.693 2.165-1.376 2.848-.661.683-1.248 1.024-1.76 1.024l-.032.256c.597 0 1.205.33 1.824.992.619.661.928 1.44.928 2.336 0 .363-.043.747-.128 1.152l-.192.992c-.341 1.835-1.163 3.275-2.464 4.32C88.392 32.477 86.6 33 84.296 33H73.608l4.064-23.04h9.28zm-2.88 13.632h-3.04l-.768 4.416h3.168c.981 0 1.76-.224 2.336-.672.576-.47.864-1.035.864-1.696 0-1.365-.853-2.048-2.56-2.048zm.864-8.64h-2.4l-.832 4.768h2.368c2.048 0 3.072-.896 3.072-2.688 0-.619-.192-1.12-.576-1.504-.363-.384-.907-.576-1.632-.576zM105.813 33l.192-5.024h-5.344L99.092 33h-6.111l8.224-23.04h10.56l.127 23.04h-6.079zm-1.312-17.44l-2.528 8.128h4.192l.352-8.128h-2.016zm23.764-5.6c2.432 0 4.16.533 5.184 1.6.768.81 1.152 1.835 1.152 3.072 0 .427-.043.875-.128 1.344l-.448 2.496c-.256 1.387-.704 2.507-1.344 3.36-.619.853-1.312 1.461-2.08 1.824L133.513 33h-6.464l-2.688-8.608h-1.984L121.065 33h-6.144l4.064-23.04h9.28zm-2.016 4.992h-2.4l-.832 5.568h2.24c1.13 0 1.941-.267 2.432-.8.49-.555.736-1.28.736-2.176 0-1.728-.726-2.592-2.176-2.592zm23.016-4.992c2.432 0 4.16.533 5.184 1.6.768.81 1.152 1.835 1.152 3.072 0 .427-.043.875-.128 1.344l-.448 2.496c-.256 1.387-.704 2.507-1.344 3.36-.619.853-1.312 1.461-2.08 1.824L154.513 33h-6.464l-2.688-8.608h-1.984L142.065 33h-6.144l4.064-23.04h9.28zm-2.016 4.992h-2.4l-.832 5.568h2.24c1.13 0 1.941-.267 2.432-.8.49-.555.736-1.28.736-2.176 0-1.728-.726-2.592-2.176-2.592zm19.496-4.992L162.713 33h-5.792l4.064-23.04h5.76zM183.297 33h-16.064l4.064-23.04h16.064l-.896 4.992h-10.304l-.736 4.32h8.512l-.896 4.992h-8.512l-.64 3.744h10.304L183.297 33zm17.03-23.04c2.432 0 4.16.533 5.184 1.6.768.81 1.152 1.835 1.152 3.072 0 .427-.043.875-.128 1.344l-.448 2.496c-.256 1.387-.704 2.507-1.344 3.36-.619.853-1.312 1.461-2.08 1.824L205.575 33h-6.464l-2.688-8.608h-1.984L193.127 33h-6.144l4.064-23.04h9.28zm-2.016 4.992h-2.4l-.832 5.568h2.24c1.131 0 1.941-.267 2.432-.8.491-.555.736-1.28.736-2.176 0-1.728-.725-2.592-2.176-2.592zM20.952 9.96c2.432 0 4.16.533 5.184 1.6.768.81 1.152 1.835 1.152 3.072 0 .427-.043.875-.128 1.344l-.288 1.536c-.235 1.216-.693 2.165-1.376 2.848-.661.683-1.248 1.024-1.76 1.024l-.032.256c.597 0 1.205.33 1.824.992.619.661.928 1.44.928 2.336 0 .363-.043.747-.128 1.152l-.192.992c-.341 1.835-1.163 3.275-2.464 4.32C22.392 32.477 20.6 33 18.296 33H7.608l4.064-23.04h9.28zm-2.88 13.632h-3.04l-.768 4.416h3.168c.981 0 1.76-.224 2.336-.672.576-.47.864-1.035.864-1.696 0-1.365-.853-2.048-2.56-2.048zm.864-8.64h-2.4l-.832 4.768h2.368c2.048 0 3.072-.896 3.072-2.688 0-.619-.192-1.12-.576-1.504-.363-.384-.907-.576-1.632-.576zM44.703 33H28.64l4.064-23.04h16.064l-.896 4.992H37.567l-.736 4.32h8.512l-.896 4.992h-8.512l-.64 3.744H45.6L44.703 33zm18.278 0H48.39l4.064-23.04h5.76l-3.168 18.048h8.832L62.981 33z" fill="#fff"/></svg>